<svg xmlns="http://www.w3.org/2000/svg" xmlns:xlink="http://www.w3.org/1999/xlink" width="500" zoomAndPan="magnify" viewBox="0 0 375 374.999991" height="500" preserveAspectRatio="xMidYMid meet" version="1.0"><defs><g/><clipPath id="813c205669"><path d="M 146.394531 235.15625 L 228.953125 235.15625 L 228.953125 237.351562 L 146.394531 237.351562 Z M 146.394531 235.15625 " clip-rule="nonzero"/></clipPath><clipPath id="4e62d3f27f"><path d="M 80.542969 153 L 237 153 L 237 206 L 80.542969 206 Z M 80.542969 153 " clip-rule="nonzero"/></clipPath><clipPath id="fa17f8f46e"><path d="M 232.21875 104.945312 L 294.300781 104.945312 L 294.300781 173.765625 L 232.21875 173.765625 Z M 232.21875 104.945312 " clip-rule="nonzero"/></clipPath><clipPath id="416678403c"><path d="M 139 134 L 172.617188 134 L 172.617188 174 L 139 174 Z M 139 134 " clip-rule="nonzero"/></clipPath><clipPath id="1e6a5820fb"><path d="M 126.023438 152 L 141 152 L 141 156 L 126.023438 156 Z M 126.023438 152 " clip-rule="nonzero"/></clipPath><clipPath id="89333a2691"><path d="M 154 128.09375 L 165 128.09375 L 165 134 L 154 134 Z M 154 128.09375 " clip-rule="nonzero"/></clipPath><clipPath id="b13df97ac9"><path d="M 156 65.332031 L 216 65.332031 L 216 95 L 156 95 Z M 156 65.332031 " clip-rule="nonzero"/></clipPath><clipPath id="2354b77b0b"><path d="M 138.808594 89 L 233.824219 89 L 233.824219 111.011719 L 138.808594 111.011719 Z M 138.808594 89 " clip-rule="nonzero"/></clipPath><clipPath id="455918cd8f"><path d="M 173 133 L 213 133 L 213 173 L 173 173 Z M 173 133 " clip-rule="nonzero"/></clipPath><clipPath id="a4dfbf644b"><path d="M 202.210938 111.21875 L 240.632812 142.164062 L 204.53125 186.992188 L 166.109375 156.046875 Z M 202.210938 111.21875 " clip-rule="nonzero"/></clipPath><clipPath id="9c8ce81503"><path d="M 202.210938 111.21875 L 240.632812 142.164062 L 204.53125 186.992188 L 166.109375 156.046875 Z M 202.210938 111.21875 " clip-rule="nonzero"/></clipPath><clipPath id="a63a929799"><path d="M 202.210938 111.21875 L 240.632812 142.164062 L 204.53125 186.992188 L 166.109375 156.046875 Z M 202.210938 111.21875 " clip-rule="nonzero"/></clipPath><clipPath id="3b7ef56985"><path d="M 209 131 L 236 131 L 236 158 L 209 158 Z M 209 131 " clip-rule="nonzero"/></clipPath><clipPath id="fd80a7eeda"><path d="M 202.210938 111.21875 L 240.632812 142.164062 L 204.53125 186.992188 L 166.109375 156.046875 Z M 202.210938 111.21875 " clip-rule="nonzero"/></clipPath><clipPath id="423ec1664f"><path d="M 202.210938 111.21875 L 240.632812 142.164062 L 204.53125 186.992188 L 166.109375 156.046875 Z M 202.210938 111.21875 " clip-rule="nonzero"/></clipPath><clipPath id="356ea8d553"><path d="M 202.210938 111.21875 L 240.632812 142.164062 L 204.53125 186.992188 L 166.109375 156.046875 Z M 202.210938 111.21875 " clip-rule="nonzero"/></clipPath></defs><rect x="-37.5" width="450" fill="#ffffff" y="-37.499999" height="449.999989" fill-opacity="1"/><rect x="-37.5" width="450" fill="#ffffff" y="-37.499999" height="449.999989" fill-opacity="1"/><g clip-path="url(#813c205669)"><path fill="#393536" d="M 227.765625 235.285156 L 147.507812 235.285156 C 146.9375 235.285156 146.476562 235.746094 146.476562 236.316406 C 146.476562 236.886719 146.9375 237.351562 147.507812 237.351562 L 227.765625 237.351562 C 228.335938 237.351562 228.796875 236.886719 228.796875 236.316406 C 228.796875 235.746094 228.335938 235.285156 227.765625 235.285156 " fill-opacity="1" fill-rule="nonzero"/></g><path fill="#393536" d="M 207.652344 203.835938 L 167.621094 203.835938 C 184.074219 208.523438 186.863281 223.21875 175.996094 231.300781 C 174.777344 232.207031 173.464844 232.957031 172.089844 233.558594 L 203.183594 233.558594 C 201.808594 232.957031 200.496094 232.207031 199.277344 231.300781 C 188.410156 223.21875 191.199219 208.523438 207.652344 203.835938 " fill-opacity="1" fill-rule="nonzero"/><path fill="#393536" d="M 256.125 114.957031 L 119.152344 114.957031 C 116.441406 114.957031 114.242188 117.160156 114.242188 119.878906 L 114.242188 188.453125 C 116.59375 188.515625 119.085938 188.488281 121.703125 188.371094 L 121.703125 122.4375 L 253.570312 122.4375 L 253.570312 144.273438 C 256.210938 142.589844 258.703125 140.910156 261.03125 139.238281 L 261.03125 119.878906 C 261.03125 117.160156 258.832031 114.957031 256.125 114.957031 " fill-opacity="1" fill-rule="nonzero"/><path fill="#393536" d="M 253.570312 193.644531 L 166.589844 193.644531 C 148.597656 198.183594 132.066406 200.683594 118.421875 201.070312 C 118.660156 201.105469 118.902344 201.125 119.152344 201.125 L 256.125 201.125 C 258.832031 201.125 261.03125 198.921875 261.03125 196.203125 L 261.03125 153.917969 C 258.648438 155.460938 256.160156 157.003906 253.570312 158.535156 L 253.570312 193.644531 " fill-opacity="1" fill-rule="nonzero"/><g clip-path="url(#4e62d3f27f)"><path fill="#ed1c24" d="M 222.773438 162.988281 L 208.976562 162.234375 L 212.679688 169.5625 C 207.242188 171.832031 201.59375 174.03125 195.765625 176.125 C 142.792969 195.179688 95.507812 198.472656 90.148438 183.488281 C 87.421875 175.863281 96.082031 164.972656 112.226562 153.601562 L 112.226562 153.433594 C 90.054688 168.179688 77.777344 183.023438 81.480469 193.386719 C 87.953125 211.476562 140.691406 209.0625 199.28125 187.996094 C 205.820312 185.640625 212.15625 183.15625 218.246094 180.570312 L 221.472656 186.957031 L 236.570312 163.742188 L 222.773438 162.988281 " fill-opacity="1" fill-rule="nonzero"/></g><g clip-path="url(#fa17f8f46e)"><path fill="#f06f25" d="M 293.652344 117.082031 C 290.386719 107.945312 275.316406 104.039062 253.652344 105.125 C 269.152344 104.855469 279.628906 107.90625 281.984375 114.5 C 286.003906 125.742188 265.28125 144.082031 232.308594 160.582031 L 241.765625 161.101562 L 233.65625 173.570312 C 273.433594 154.21875 298.765625 131.386719 293.652344 117.082031 " fill-opacity="1" fill-rule="nonzero"/></g><path fill="#ed1c24" d="M 161.070312 156.148438 L 161.070312 158.277344 L 152.929688 158.277344 C 153.027344 157.492188 153.296875 156.707031 153.730469 156.015625 C 154.164062 155.296875 155.03125 154.34375 156.332031 153.164062 C 157.367188 152.214844 158.035156 151.558594 158.269531 151.230469 C 158.601562 150.769531 158.734375 150.277344 158.734375 149.820312 C 158.734375 149.328125 158.601562 148.933594 158.335938 148.640625 C 158.066406 148.378906 157.667969 148.246094 157.199219 148.246094 C 156.699219 148.246094 156.332031 148.378906 156.03125 148.671875 C 155.730469 148.96875 155.566406 149.425781 155.53125 150.117188 L 153.226562 149.886719 C 153.363281 148.640625 153.796875 147.722656 154.53125 147.199219 C 155.265625 146.640625 156.164062 146.378906 157.265625 146.378906 C 158.46875 146.378906 159.402344 146.707031 160.070312 147.328125 C 160.738281 147.953125 161.105469 148.738281 161.105469 149.6875 C 161.105469 150.214844 161.003906 150.738281 160.804688 151.230469 C 160.605469 151.722656 160.304688 152.214844 159.871094 152.738281 C 159.601562 153.097656 159.070312 153.589844 158.367188 154.246094 C 157.632812 154.902344 157.167969 155.328125 156.964844 155.558594 C 156.765625 155.789062 156.597656 155.984375 156.5 156.179688 L 161.070312 156.179688 Z M 161.070312 156.148438 " fill-opacity="1" fill-rule="nonzero"/><path fill="#ed1c24" d="M 167.179688 158.246094 L 167.179688 155.851562 L 162.238281 155.851562 L 162.238281 153.851562 L 167.480469 146.3125 L 169.414062 146.3125 L 169.414062 153.851562 L 170.917969 153.851562 L 170.917969 155.851562 L 169.414062 155.851562 L 169.414062 158.246094 Z M 167.179688 153.851562 L 167.179688 149.789062 L 164.410156 153.851562 Z M 167.179688 153.851562 " fill-opacity="1" fill-rule="nonzero"/><path fill="#ed1c24" d="M 153.304688 163.265625 L 153.304688 159.039062 L 154.167969 159.039062 L 154.167969 160.703125 L 155.863281 160.703125 L 155.863281 159.039062 L 156.730469 159.039062 L 156.730469 163.265625 L 155.863281 163.265625 L 155.863281 161.414062 L 154.167969 161.414062 L 154.167969 163.265625 Z M 153.304688 163.265625 " fill-opacity="1" fill-rule="nonzero"/><path fill="#ed1c24" d="M 157.453125 161.179688 C 157.453125 160.75 157.523438 160.386719 157.652344 160.097656 C 157.75 159.886719 157.878906 159.6875 158.054688 159.515625 C 158.222656 159.339844 158.414062 159.210938 158.613281 159.128906 C 158.886719 159.015625 159.195312 158.96875 159.539062 158.96875 C 160.167969 158.96875 160.675781 159.164062 161.054688 159.550781 C 161.433594 159.933594 161.625 160.46875 161.625 161.15625 C 161.625 161.84375 161.433594 162.367188 161.054688 162.753906 C 160.675781 163.136719 160.179688 163.335938 159.539062 163.335938 C 158.898438 163.335938 158.386719 163.148438 158.007812 162.761719 C 157.640625 162.378906 157.453125 161.84375 157.453125 161.179688 Z M 158.351562 161.144531 C 158.351562 161.621094 158.460938 161.984375 158.683594 162.226562 C 158.910156 162.472656 159.195312 162.601562 159.539062 162.601562 C 159.882812 162.601562 160.167969 162.472656 160.390625 162.226562 C 160.617188 161.984375 160.722656 161.609375 160.722656 161.121094 C 160.722656 160.632812 160.617188 160.273438 160.402344 160.039062 C 160.191406 159.804688 159.90625 159.675781 159.539062 159.675781 C 159.183594 159.675781 158.898438 159.792969 158.671875 160.039062 C 158.460938 160.292969 158.351562 160.65625 158.351562 161.144531 Z M 158.351562 161.144531 " fill-opacity="1" fill-rule="nonzero"/><path fill="#ed1c24" d="M 162.300781 159.039062 L 163.164062 159.039062 L 163.164062 161.320312 C 163.164062 161.679688 163.179688 161.914062 163.203125 162.03125 C 163.238281 162.203125 163.332031 162.34375 163.460938 162.449219 C 163.605469 162.554688 163.792969 162.601562 164.03125 162.601562 C 164.28125 162.601562 164.457031 162.554688 164.589844 162.449219 C 164.71875 162.34375 164.789062 162.226562 164.8125 162.089844 C 164.835938 161.949219 164.847656 161.703125 164.847656 161.367188 L 164.847656 159.027344 L 165.714844 159.027344 L 165.714844 161.238281 C 165.714844 161.75 165.691406 162.101562 165.644531 162.308594 C 165.597656 162.519531 165.511719 162.695312 165.382812 162.832031 C 165.253906 162.972656 165.085938 163.089844 164.871094 163.183594 C 164.660156 163.265625 164.386719 163.3125 164.042969 163.3125 C 163.628906 163.3125 163.320312 163.265625 163.105469 163.171875 C 162.894531 163.078125 162.726562 162.960938 162.609375 162.808594 C 162.488281 162.660156 162.40625 162.507812 162.359375 162.34375 C 162.300781 162.101562 162.277344 161.75 162.277344 161.273438 L 162.277344 159.039062 Z M 162.300781 159.039062 " fill-opacity="1" fill-rule="nonzero"/><path fill="#ed1c24" d="M 166.640625 163.265625 L 166.640625 159.039062 L 168.464844 159.039062 C 168.925781 159.039062 169.257812 159.070312 169.460938 159.152344 C 169.675781 159.234375 169.839844 159.363281 169.957031 159.5625 C 170.089844 159.757812 170.148438 159.980469 170.148438 160.226562 C 170.148438 160.539062 170.054688 160.808594 169.863281 161.003906 C 169.675781 161.214844 169.390625 161.34375 169.011719 161.390625 C 169.199219 161.496094 169.355469 161.609375 169.472656 161.738281 C 169.589844 161.867188 169.757812 162.101562 169.96875 162.425781 L 170.492188 163.253906 L 169.449219 163.253906 L 168.820312 162.332031 C 168.59375 162.007812 168.441406 161.796875 168.359375 161.714844 C 168.273438 161.632812 168.191406 161.574219 168.097656 161.539062 C 168.003906 161.507812 167.859375 161.496094 167.660156 161.496094 L 167.480469 161.496094 L 167.480469 163.253906 L 166.640625 163.253906 Z M 167.503906 160.820312 L 168.144531 160.820312 C 168.558594 160.820312 168.820312 160.808594 168.925781 160.773438 C 169.035156 160.738281 169.117188 160.679688 169.175781 160.597656 C 169.234375 160.515625 169.257812 160.410156 169.257812 160.285156 C 169.257812 160.144531 169.222656 160.027344 169.140625 159.933594 C 169.058594 159.839844 168.949219 159.792969 168.808594 159.769531 C 168.738281 159.757812 168.523438 159.757812 168.179688 159.757812 L 167.503906 159.757812 Z M 167.503906 160.820312 " fill-opacity="1" fill-rule="nonzero"/><g clip-path="url(#416678403c)"><path fill="#ed1c24" d="M 166.300781 172.480469 C 166.375 172.453125 166.464844 172.496094 166.492188 172.570312 C 166.507812 172.628906 166.539062 172.671875 166.539062 172.6875 C 165.488281 173.117188 164.410156 173.410156 163.289062 173.617188 C 162.195312 173.808594 161.074219 173.914062 159.90625 173.941406 C 154.472656 174.105469 149.480469 172.023438 145.832031 168.539062 C 142.125 164.992188 139.867188 159.988281 139.777344 154.464844 C 139.746094 148.894531 141.976562 143.84375 145.609375 140.167969 C 149.257812 136.476562 154.308594 134.199219 159.90625 134.171875 C 162.507812 134.15625 164.871094 134.527344 167.011719 135.292969 C 169.136719 136.046875 171.058594 137.183594 172.828125 138.75 C 172.933594 138.839844 172.992188 138.957031 172.992188 139.089844 C 172.992188 139.222656 172.949219 139.355469 172.859375 139.445312 C 172.59375 139.722656 172.222656 140.121094 171.941406 140.433594 C 171.707031 140.683594 171.324219 140.699219 171.058594 140.476562 C 169.566406 139.179688 167.957031 138.21875 166.183594 137.566406 C 164.277344 136.875 162.195312 136.550781 159.890625 136.535156 C 154.945312 136.519531 150.457031 138.511719 147.191406 141.734375 C 143.914062 144.980469 141.859375 149.472656 141.832031 154.433594 C 141.757812 159.453125 143.75 164.003906 146.96875 167.355469 C 150.25 170.78125 154.796875 172.996094 159.890625 173.144531 C 161.015625 173.191406 162.121094 173.160156 163.199219 173.058594 C 164.265625 172.984375 165.296875 172.789062 166.300781 172.480469 Z M 166.300781 172.480469 " fill-opacity="1" fill-rule="evenodd"/></g><path fill="#ed1c24" d="M 161.796875 138.5 C 161.914062 137.847656 162.519531 137.421875 163.171875 137.539062 C 163.820312 137.65625 164.25 138.261719 164.128906 138.910156 L 163.6875 141.480469 C 163.570312 142.132812 162.964844 142.558594 162.3125 142.441406 C 161.664062 142.324219 161.234375 141.71875 161.355469 141.066406 Z M 161.796875 138.5 " fill-opacity="1" fill-rule="evenodd"/><path fill="#ed1c24" d="M 168.839844 141.128906 C 169.28125 140.632812 170.019531 140.585938 170.511719 141.023438 C 171.007812 141.464844 171.054688 142.203125 170.617188 142.695312 L 168.898438 144.660156 C 168.457031 145.152344 167.71875 145.199219 167.226562 144.761719 C 166.734375 144.320312 166.683594 143.582031 167.121094 143.089844 Z M 168.839844 141.128906 " fill-opacity="1" fill-rule="evenodd"/><path fill="#ed1c24" d="M 153.835938 139.535156 C 153.648438 138.902344 153.996094 138.246094 154.628906 138.058594 C 155.261719 137.871094 155.917969 138.21875 156.105469 138.851562 L 156.867188 141.347656 C 157.054688 141.980469 156.707031 142.636719 156.074219 142.824219 C 155.441406 143.007812 154.785156 142.660156 154.597656 142.027344 Z M 153.835938 139.535156 " fill-opacity="1" fill-rule="evenodd"/><path fill="#ed1c24" d="M 146.683594 145.59375 C 146.136719 145.242188 145.96875 144.503906 146.332031 143.953125 C 146.695312 143.402344 147.417969 143.253906 147.964844 143.605469 L 149.988281 144.914062 C 150.535156 145.265625 150.703125 146.003906 150.339844 146.554688 C 149.976562 147.105469 149.253906 147.253906 148.707031 146.902344 Z M 146.683594 145.59375 " fill-opacity="1" fill-rule="evenodd"/><path fill="#ed1c24" d="M 144.308594 153.804688 C 143.652344 153.765625 143.152344 153.214844 143.195312 152.554688 C 143.234375 151.894531 143.785156 151.398438 144.445312 151.441406 L 147.050781 151.574219 C 147.707031 151.617188 148.207031 152.167969 148.164062 152.824219 C 148.125 153.484375 147.574219 153.980469 146.914062 153.941406 Z M 144.308594 153.804688 " fill-opacity="1" fill-rule="evenodd"/><path fill="#ed1c24" d="M 145.980469 161.003906 C 145.359375 161.222656 144.6875 160.910156 144.46875 160.285156 C 144.25 159.660156 144.566406 158.992188 145.191406 158.773438 L 147.644531 157.890625 C 148.265625 157.671875 148.9375 157.984375 149.15625 158.609375 C 149.375 159.234375 149.058594 159.902344 148.4375 160.121094 Z M 145.980469 161.003906 " fill-opacity="1" fill-rule="evenodd"/><path fill="#ed1c24" d="M 150.398438 166.945312 C 149.914062 167.390625 149.171875 167.367188 148.726562 166.882812 C 148.277344 166.394531 148.304688 165.652344 148.789062 165.207031 L 150.695312 163.425781 C 151.183594 162.980469 151.921875 163.003906 152.371094 163.492188 C 152.816406 163.976562 152.792969 164.71875 152.304688 165.164062 Z M 150.398438 166.945312 " fill-opacity="1" fill-rule="evenodd"/><path fill="#ed1c24" d="M 157.597656 170.738281 C 157.410156 171.359375 156.75 171.722656 156.128906 171.546875 C 155.496094 171.355469 155.136719 170.703125 155.324219 170.082031 L 156.152344 167.238281 C 156.339844 166.617188 157 166.257812 157.617188 166.429688 C 158.25 166.621094 158.613281 167.273438 158.425781 167.894531 Z M 157.597656 170.738281 " fill-opacity="1" fill-rule="evenodd"/><path fill="#ed1c24" d="M 165.578125 170.355469 C 165.652344 171.011719 165.191406 171.59375 164.535156 171.667969 C 163.878906 171.738281 163.296875 171.28125 163.226562 170.625 L 162.917969 168.035156 C 162.84375 167.378906 163.304688 166.796875 163.960938 166.722656 C 164.617188 166.652344 165.199219 167.109375 165.269531 167.765625 Z M 165.578125 170.355469 " fill-opacity="1" fill-rule="evenodd"/><path fill="#ed1c24" d="M 151.503906 137.363281 C 151.503906 137.363281 144.152344 137.203125 140.457031 137.117188 C 140.371094 137.121094 140.308594 137.054688 140.304688 136.96875 C 140.300781 136.882812 140.363281 136.820312 140.441406 136.804688 C 144.890625 136.238281 154.933594 134.949219 154.933594 134.949219 Z M 151.503906 137.363281 " fill-opacity="1" fill-rule="evenodd"/><path fill="#ed1c24" d="M 142.859375 145.675781 C 142.859375 145.675781 135.414062 145.238281 131.164062 144.996094 C 131.039062 144.992188 130.953125 144.890625 130.941406 144.769531 C 130.933594 144.652344 131.039062 144.542969 131.15625 144.535156 C 135.855469 144.046875 144.632812 143.15625 144.632812 143.15625 Z M 142.859375 145.675781 " fill-opacity="1" fill-rule="evenodd"/><g clip-path="url(#1e6a5820fb)"><path fill="#ed1c24" d="M 140.773438 155.011719 C 140.773438 155.011719 131.125 154.511719 126.335938 154.261719 C 126.230469 154.261719 126.144531 154.160156 126.140625 154.050781 C 126.140625 153.945312 126.222656 153.855469 126.332031 153.835938 C 131.121094 153.320312 140.796875 152.285156 140.796875 152.285156 Z M 140.773438 155.011719 " fill-opacity="1" fill-rule="evenodd"/></g><path fill="#ed1c24" d="M 142.75 163.433594 C 142.75 163.433594 134.992188 162.957031 130.871094 162.71875 C 130.742188 162.714844 130.648438 162.601562 130.640625 162.480469 C 130.628906 162.363281 130.726562 162.242188 130.847656 162.234375 C 134.796875 161.71875 142.011719 160.757812 142.011719 160.757812 Z M 142.75 163.433594 " fill-opacity="1" fill-rule="evenodd"/><path fill="#ed1c24" d="M 147.890625 169.316406 C 147.890625 169.316406 141.265625 169.144531 137.667969 169.046875 C 137.574219 169.039062 137.492188 168.972656 137.476562 168.875 C 137.464844 168.773438 137.546875 168.683594 137.644531 168.671875 C 140.816406 168.21875 146.222656 167.433594 146.222656 167.433594 Z M 147.890625 169.316406 " fill-opacity="1" fill-rule="evenodd"/><path fill="#ed1c24" d="M 157.988281 173.878906 C 157.988281 173.878906 149.832031 173.53125 145.59375 173.351562 C 145.519531 173.347656 145.457031 173.285156 145.453125 173.199219 C 145.445312 173.113281 145.511719 173.050781 145.597656 173.046875 C 148.785156 172.796875 153.878906 172.398438 153.878906 172.398438 Z M 157.988281 173.878906 " fill-opacity="1" fill-rule="evenodd"/><g clip-path="url(#89333a2691)"><path fill="#ed1c24" d="M 164.914062 130.332031 L 164.90625 131.324219 C 164.90625 131.609375 164.855469 131.882812 164.742188 132.144531 C 164.628906 132.402344 164.476562 132.640625 164.273438 132.84375 C 164.070312 133.042969 163.839844 133.203125 163.574219 133.304688 C 163.320312 133.410156 163.035156 133.472656 162.75 133.464844 L 156.636719 133.449219 C 155.996094 133.449219 155.40625 133.195312 154.992188 132.769531 C 154.574219 132.347656 154.308594 131.769531 154.308594 131.121094 L 154.308594 130.296875 C 154.308594 129.699219 154.554688 129.15625 154.949219 128.761719 C 155.347656 128.371094 155.886719 128.125 156.484375 128.125 L 162.671875 128.082031 C 162.964844 128.082031 163.257812 128.148438 163.523438 128.25 C 163.796875 128.363281 164.042969 128.53125 164.253906 128.738281 C 164.46875 128.945312 164.628906 129.195312 164.742188 129.46875 C 164.855469 129.738281 164.914062 130.035156 164.914062 130.332031 Z M 162.832031 130.332031 C 162.832031 130.289062 162.8125 130.25 162.78125 130.21875 C 162.75 130.1875 162.710938 130.171875 162.671875 130.171875 L 156.484375 130.171875 C 156.414062 130.171875 156.363281 130.226562 156.363281 130.296875 L 156.363281 131.121094 C 156.363281 131.273438 156.484375 131.402344 156.636719 131.402344 L 162.75 131.402344 C 162.773438 131.402344 162.792969 131.394531 162.800781 131.378906 C 162.8125 131.363281 162.824219 131.347656 162.824219 131.324219 Z M 162.832031 130.332031 " fill-opacity="1" fill-rule="evenodd"/></g><path fill="#ed1c24" d="M 162.136719 133.5 L 162.121094 134.226562 L 162.058594 136.109375 L 158.820312 135.988281 L 157.097656 135.988281 L 157.121094 133.507812 L 157.121094 131.800781 L 160.21875 131.566406 L 162.121094 131.71875 Z M 158.820312 133.5 L 158.820312 134.257812 L 159.042969 134.257812 L 159.402344 134.617188 L 159.765625 134.257812 L 160.210938 134.257812 L 160.210938 133.5 L 159.863281 132.886719 L 159.144531 133.113281 Z M 158.820312 133.5 " fill-opacity="1" fill-rule="evenodd"/><path fill="#f06f25" d="M 186.109375 81.78125 C 192.992188 81.78125 199.023438 85.410156 202.402344 90.855469 C 200.195312 83.964844 193.734375 78.972656 186.109375 78.972656 C 178.484375 78.972656 172.027344 83.964844 169.820312 90.855469 C 173.199219 85.410156 179.230469 81.78125 186.109375 81.78125 " fill-opacity="1" fill-rule="nonzero"/><g clip-path="url(#b13df97ac9)"><path fill="#f06f25" d="M 164.0625 87.085938 C 163.171875 89.414062 160.945312 90.953125 158.453125 90.953125 L 156.410156 90.953125 C 156.515625 91.046875 156.621094 91.140625 156.722656 91.238281 C 158.816406 93.214844 161.585938 94.304688 164.523438 94.304688 L 167.414062 94.304688 C 168.027344 84.515625 176.164062 76.761719 186.109375 76.761719 C 196.058594 76.761719 204.191406 84.515625 204.808594 94.304688 L 207.695312 94.304688 C 210.636719 94.304688 213.40625 93.214844 215.5 91.238281 C 215.601562 91.140625 215.707031 91.046875 215.8125 90.953125 L 213.769531 90.953125 C 211.277344 90.953125 209.046875 89.414062 208.160156 87.085938 C 208.003906 86.675781 207.835938 86.273438 207.660156 85.875 C 206.636719 83.59375 207.113281 80.921875 208.878906 79.152344 L 210.640625 77.394531 L 204.214844 70.96875 L 202.453125 72.726562 C 200.6875 74.496094 198.015625 74.96875 195.730469 73.949219 C 195.332031 73.769531 194.929688 73.605469 194.523438 73.449219 C 192.195312 72.558594 190.65625 70.332031 190.65625 67.839844 L 190.65625 65.351562 L 181.566406 65.351562 L 181.566406 67.839844 C 181.566406 70.332031 180.027344 72.558594 177.699219 73.449219 C 177.289062 73.605469 176.886719 73.769531 176.488281 73.949219 C 174.207031 74.96875 171.535156 74.496094 169.765625 72.726562 L 168.007812 70.96875 L 161.582031 77.394531 L 163.339844 79.152344 C 165.109375 80.921875 165.582031 83.59375 164.5625 85.875 C 164.382812 86.273438 164.21875 86.675781 164.0625 87.085938 " fill-opacity="1" fill-rule="nonzero"/></g><g clip-path="url(#2354b77b0b)"><path fill="#f06f25" d="M 220.078125 100.296875 L 223.328125 94.746094 L 233.410156 94.773438 C 231.515625 91.605469 228.050781 89.484375 224.09375 89.484375 C 221.207031 89.484375 218.585938 90.609375 216.640625 92.445312 C 214.226562 94.726562 211.015625 95.96875 207.695312 95.96875 L 164.523438 95.96875 C 161.207031 95.96875 157.992188 94.726562 155.582031 92.445312 C 153.636719 90.609375 151.015625 89.484375 148.128906 89.484375 C 144.167969 89.484375 140.703125 91.605469 138.808594 94.773438 L 148.894531 94.746094 L 152.144531 100.296875 L 148.957031 105.890625 L 138.820312 105.917969 C 140.71875 109.074219 144.175781 111.1875 148.128906 111.1875 C 151.015625 111.1875 153.636719 110.0625 155.582031 108.226562 C 157.992188 105.945312 161.207031 104.703125 164.523438 104.703125 L 207.695312 104.703125 C 211.015625 104.703125 214.226562 105.945312 216.640625 108.226562 C 218.585938 110.0625 221.207031 111.1875 224.09375 111.1875 C 228.046875 111.1875 231.503906 109.074219 233.402344 105.917969 L 223.261719 105.890625 L 220.078125 100.296875 " fill-opacity="1" fill-rule="nonzero"/></g><g clip-path="url(#455918cd8f)"><g clip-path="url(#a4dfbf644b)"><g clip-path="url(#9c8ce81503)"><g clip-path="url(#a63a929799)"><path fill="#f68712" d="M 192.332031 163.183594 C 186.765625 162.816406 182.566406 158.007812 182.949219 152.4375 C 183.332031 146.867188 188.152344 142.648438 193.71875 143.011719 C 199.28125 143.378906 203.480469 148.1875 203.097656 153.757812 C 203.085938 153.941406 203.070312 154.128906 203.046875 154.308594 C 203.203125 151.476562 202.042969 148.613281 199.667969 146.703125 C 198.488281 145.75 197.140625 145.144531 195.746094 144.867188 C 196.71875 145.183594 197.65625 145.675781 198.5 146.359375 C 202.222656 149.355469 202.800781 154.8125 199.792969 158.550781 C 196.785156 162.285156 191.328125 162.882812 187.605469 159.882812 C 186.761719 159.203125 186.078125 158.394531 185.5625 157.511719 C 186.128906 158.8125 187.011719 160 188.191406 160.953125 C 190.574219 162.871094 193.628906 163.390625 196.371094 162.625 C 195.113281 163.070312 193.746094 163.273438 192.332031 163.183594 Z M 205.457031 159.242188 C 206.359375 157.425781 209.355469 157.605469 211.773438 156.941406 C 211.945312 156.097656 212.066406 155.234375 212.128906 154.351562 C 212.1875 153.46875 212.1875 152.597656 212.128906 151.738281 C 209.824219 150.761719 206.832031 150.546875 206.1875 148.632812 C 205.542969 146.710938 207.792969 144.71875 209.039062 142.539062 C 208.566406 141.820312 208.042969 141.128906 207.460938 140.460938 C 206.882812 139.796875 206.265625 139.183594 205.617188 138.621094 C 203.292969 139.5625 201.019531 141.53125 199.207031 140.636719 C 197.394531 139.738281 197.582031 136.738281 196.925781 134.324219 C 196.082031 134.152344 195.21875 134.035156 194.339844 133.976562 C 193.457031 133.917969 192.585938 133.921875 191.726562 133.980469 C 190.746094 136.292969 190.523438 139.289062 188.605469 139.941406 C 186.683594 140.589844 184.699219 138.34375 182.527344 137.105469 C 181.808594 137.578125 181.109375 138.109375 180.445312 138.691406 C 179.777344 139.273438 179.164062 139.894531 178.597656 140.542969 C 179.53125 142.863281 181.492188 145.136719 180.589844 146.953125 C 179.691406 148.769531 176.691406 148.589844 174.277344 149.253906 C 174.101562 150.097656 173.980469 150.960938 173.921875 151.84375 C 173.859375 152.726562 173.859375 153.597656 173.917969 154.457031 C 176.222656 155.433594 179.21875 155.644531 179.863281 157.5625 C 180.507812 159.480469 178.253906 161.476562 177.007812 163.65625 C 177.480469 164.371094 178.003906 165.066406 178.585938 165.730469 C 179.167969 166.398438 179.785156 167.011719 180.429688 167.574219 C 182.753906 166.632812 185.03125 164.664062 186.84375 165.558594 C 188.65625 166.457031 188.464844 169.457031 189.121094 171.871094 C 189.964844 172.042969 190.828125 172.160156 191.710938 172.21875 C 192.589844 172.277344 193.460938 172.273438 194.320312 172.210938 C 195.300781 169.902344 195.527344 166.90625 197.445312 166.253906 C 199.363281 165.601562 201.347656 167.851562 203.523438 169.089844 C 204.242188 168.613281 204.9375 168.085938 205.601562 167.503906 C 206.269531 166.921875 206.882812 166.300781 207.449219 165.652344 C 206.515625 163.332031 204.554688 161.058594 205.457031 159.242188 " fill-opacity="1" fill-rule="nonzero"/></g></g></g></g><g clip-path="url(#3b7ef56985)"><g clip-path="url(#fd80a7eeda)"><g clip-path="url(#423ec1664f)"><g clip-path="url(#356ea8d553)"><path fill="#393536" d="M 215.484375 145.554688 C 214.738281 141.820312 217.160156 138.183594 220.894531 137.425781 C 224.625 136.667969 228.253906 139.078125 229 142.808594 C 229.179688 143.710938 229.175781 144.605469 229.011719 145.457031 C 229.277344 143.390625 228.496094 141.242188 226.757812 139.84375 C 225.957031 139.195312 225.039062 138.785156 224.09375 138.59375 C 224.757812 138.808594 225.390625 139.144531 225.964844 139.609375 C 228.492188 141.644531 228.886719 145.351562 226.84375 147.886719 C 224.800781 150.425781 221.09375 150.832031 218.566406 148.792969 C 217.992188 148.332031 217.53125 147.785156 217.179688 147.183594 C 217.566406 148.066406 218.164062 148.871094 218.964844 149.519531 C 220.703125 150.917969 222.96875 151.222656 224.929688 150.523438 C 224.507812 150.703125 224.058594 150.84375 223.589844 150.941406 C 219.859375 151.699219 216.230469 149.285156 215.484375 145.554688 Z M 232.023438 152.820312 C 232.414062 152.378906 232.777344 151.90625 233.109375 151.402344 C 233.445312 150.898438 233.742188 150.382812 233.996094 149.855469 C 232.964844 148.492188 231.265625 147.351562 231.535156 145.996094 C 231.804688 144.636719 233.8125 144.21875 235.285156 143.347656 C 235.25 142.761719 235.171875 142.171875 235.054688 141.582031 C 234.9375 140.988281 234.78125 140.417969 234.589844 139.863281 C 232.894531 139.632812 230.882812 140.03125 230.117188 138.882812 C 229.347656 137.738281 230.476562 136.023438 230.90625 134.367188 C 230.464844 133.976562 229.996094 133.617188 229.496094 133.28125 C 228.992188 132.949219 228.476562 132.65625 227.949219 132.402344 C 226.585938 133.4375 225.4375 135.140625 224.085938 134.875 C 222.730469 134.613281 222.316406 132.605469 221.453125 131.132812 C 220.867188 131.171875 220.277344 131.25 219.683594 131.367188 C 219.09375 131.488281 218.519531 131.648438 217.964844 131.839844 C 217.730469 133.535156 218.121094 135.546875 216.972656 136.320312 C 215.824219 137.09375 214.113281 135.96875 212.460938 135.542969 C 212.074219 135.984375 211.707031 136.457031 211.375 136.960938 C 211.039062 137.464844 210.746094 137.980469 210.488281 138.511719 C 211.519531 139.871094 213.21875 141.011719 212.949219 142.367188 C 212.679688 143.726562 210.671875 144.144531 209.199219 145.015625 C 209.234375 145.601562 209.3125 146.191406 209.429688 146.785156 C 209.546875 147.375 209.703125 147.949219 209.894531 148.503906 C 211.589844 148.730469 213.601562 148.332031 214.367188 149.480469 C 215.136719 150.625 214.007812 152.34375 213.578125 154 C 214.019531 154.386719 214.488281 154.75 214.992188 155.082031 C 215.492188 155.414062 216.007812 155.707031 216.535156 155.964844 C 217.898438 154.925781 219.046875 153.222656 220.398438 153.488281 C 221.753906 153.753906 222.167969 155.757812 223.03125 157.230469 C 223.617188 157.191406 224.207031 157.117188 224.800781 156.996094 C 225.390625 156.875 225.964844 156.714844 226.519531 156.523438 C 226.753906 154.828125 226.363281 152.816406 227.511719 152.042969 C 228.660156 151.273438 230.371094 152.394531 232.023438 152.820312 " fill-opacity="1" fill-rule="nonzero"/></g></g></g></g><g fill="#393536" fill-opacity="1"><g transform="translate(98.993768, 263.694488)"><g><path d="M 13.71875 -19.1875 L 13.71875 -15.4375 L 8.890625 -15.4375 L 8.890625 0 L 4.703125 0 L 4.703125 -15.4375 L -0.15625 -15.4375 L -0.15625 -19.1875 Z M 13.71875 -19.1875 "/></g></g></g><g fill="#393536" fill-opacity="1"><g transform="translate(113.06326, 263.694488)"><g><path d="M 13.59375 -15.46875 L 6.265625 -15.46875 L 6.265625 -11.453125 L 12.53125 -11.453125 L 12.53125 -7.734375 L 6.265625 -7.734375 L 6.265625 -3.703125 L 13.59375 -3.703125 L 13.59375 0 L 2.046875 0 L 2.046875 -19.1875 L 13.59375 -19.1875 Z M 13.59375 -15.46875 "/></g></g></g><g fill="#393536" fill-opacity="1"><g transform="translate(128.475745, 263.694488)"><g><path d="M 11.03125 0.25 C 9.664062 0.25 8.390625 -0.00390625 7.203125 -0.515625 C 6.023438 -1.023438 4.984375 -1.734375 4.078125 -2.640625 C 3.171875 -3.546875 2.460938 -4.585938 1.953125 -5.765625 C 1.441406 -6.953125 1.1875 -8.226562 1.1875 -9.59375 C 1.1875 -10.957031 1.441406 -12.226562 1.953125 -13.40625 C 2.460938 -14.59375 3.171875 -15.640625 4.078125 -16.546875 C 4.984375 -17.453125 6.023438 -18.160156 7.203125 -18.671875 C 8.390625 -19.179688 9.664062 -19.4375 11.03125 -19.4375 C 12.925781 -19.4375 14.648438 -18.953125 16.203125 -17.984375 C 17.765625 -17.015625 18.953125 -15.738281 19.765625 -14.15625 L 16.109375 -12.28125 C 15.640625 -13.195312 14.957031 -13.929688 14.0625 -14.484375 C 13.164062 -15.035156 12.15625 -15.3125 11.03125 -15.3125 C 9.96875 -15.3125 9.003906 -15.0625 8.140625 -14.5625 C 7.273438 -14.0625 6.59375 -13.378906 6.09375 -12.515625 C 5.59375 -11.648438 5.34375 -10.675781 5.34375 -9.59375 C 5.34375 -8.507812 5.59375 -7.535156 6.09375 -6.671875 C 6.59375 -5.804688 7.273438 -5.125 8.140625 -4.625 C 9.003906 -4.125 9.96875 -3.875 11.03125 -3.875 C 12.15625 -3.875 13.164062 -4.148438 14.0625 -4.703125 C 14.957031 -5.253906 15.640625 -5.988281 16.109375 -6.90625 L 19.765625 -5.015625 C 18.953125 -3.460938 17.765625 -2.195312 16.203125 -1.21875 C 14.648438 -0.238281 12.925781 0.25 11.03125 0.25 Z M 11.03125 0.25 "/></g></g></g><g fill="#393536" fill-opacity="1"><g transform="translate(149.579977, 263.694488)"><g><path d="M 15.671875 -19.1875 L 19.859375 -19.1875 L 19.859375 0 L 15.5 0 L 6.109375 -12.71875 L 6.109375 0 L 1.890625 0 L 1.890625 -19.1875 L 6.234375 -19.1875 L 15.671875 -6.484375 Z M 15.671875 -19.1875 "/></g></g></g><g fill="#393536" fill-opacity="1"><g transform="translate(171.867317, 263.694488)"><g><path d="M 11.03125 0.25 C 9.664062 0.25 8.390625 -0.00390625 7.203125 -0.515625 C 6.023438 -1.023438 4.984375 -1.734375 4.078125 -2.640625 C 3.171875 -3.546875 2.460938 -4.585938 1.953125 -5.765625 C 1.441406 -6.953125 1.1875 -8.226562 1.1875 -9.59375 C 1.1875 -10.957031 1.441406 -12.226562 1.953125 -13.40625 C 2.460938 -14.59375 3.171875 -15.640625 4.078125 -16.546875 C 4.984375 -17.453125 6.023438 -18.160156 7.203125 -18.671875 C 8.390625 -19.179688 9.664062 -19.4375 11.03125 -19.4375 C 12.394531 -19.4375 13.671875 -19.179688 14.859375 -18.671875 C 16.054688 -18.160156 17.101562 -17.453125 18 -16.546875 C 18.894531 -15.640625 19.597656 -14.59375 20.109375 -13.40625 C 20.617188 -12.226562 20.875 -10.957031 20.875 -9.59375 C 20.875 -8.226562 20.617188 -6.953125 20.109375 -5.765625 C 19.597656 -4.585938 18.894531 -3.546875 18 -2.640625 C 17.101562 -1.734375 16.054688 -1.023438 14.859375 -0.515625 C 13.671875 -0.00390625 12.394531 0.25 11.03125 0.25 Z M 11.03125 -3.875 C 12.113281 -3.875 13.085938 -4.125 13.953125 -4.625 C 14.816406 -5.125 15.5 -5.804688 16 -6.671875 C 16.5 -7.535156 16.75 -8.507812 16.75 -9.59375 C 16.75 -10.675781 16.5 -11.648438 16 -12.515625 C 15.5 -13.378906 14.816406 -14.0625 13.953125 -14.5625 C 13.085938 -15.0625 12.113281 -15.3125 11.03125 -15.3125 C 9.96875 -15.3125 9.003906 -15.0625 8.140625 -14.5625 C 7.273438 -14.0625 6.59375 -13.378906 6.09375 -12.515625 C 5.59375 -11.648438 5.34375 -10.675781 5.34375 -9.59375 C 5.34375 -8.507812 5.59375 -7.535156 6.09375 -6.671875 C 6.59375 -5.804688 7.273438 -5.125 8.140625 -4.625 C 9.003906 -4.125 9.96875 -3.875 11.03125 -3.875 Z M 11.03125 -3.875 "/></g></g></g><g fill="#393536" fill-opacity="1"><g transform="translate(194.474423, 263.694488)"><g><path d="M 13.71875 -19.1875 L 13.71875 -15.4375 L 8.890625 -15.4375 L 8.890625 0 L 4.703125 0 L 4.703125 -15.4375 L -0.15625 -15.4375 L -0.15625 -19.1875 Z M 13.71875 -19.1875 "/></g></g></g><g fill="#393536" fill-opacity="1"><g transform="translate(208.543913, 263.694488)"><g><path d="M 11.03125 0.25 C 9.664062 0.25 8.390625 -0.00390625 7.203125 -0.515625 C 6.023438 -1.023438 4.984375 -1.734375 4.078125 -2.640625 C 3.171875 -3.546875 2.460938 -4.585938 1.953125 -5.765625 C 1.441406 -6.953125 1.1875 -8.226562 1.1875 -9.59375 C 1.1875 -10.957031 1.441406 -12.226562 1.953125 -13.40625 C 2.460938 -14.59375 3.171875 -15.640625 4.078125 -16.546875 C 4.984375 -17.453125 6.023438 -18.160156 7.203125 -18.671875 C 8.390625 -19.179688 9.664062 -19.4375 11.03125 -19.4375 C 12.394531 -19.4375 13.671875 -19.179688 14.859375 -18.671875 C 16.054688 -18.160156 17.101562 -17.453125 18 -16.546875 C 18.894531 -15.640625 19.597656 -14.59375 20.109375 -13.40625 C 20.617188 -12.226562 20.875 -10.957031 20.875 -9.59375 C 20.875 -8.226562 20.617188 -6.953125 20.109375 -5.765625 C 19.597656 -4.585938 18.894531 -3.546875 18 -2.640625 C 17.101562 -1.734375 16.054688 -1.023438 14.859375 -0.515625 C 13.671875 -0.00390625 12.394531 0.25 11.03125 0.25 Z M 11.03125 -3.875 C 12.113281 -3.875 13.085938 -4.125 13.953125 -4.625 C 14.816406 -5.125 15.5 -5.804688 16 -6.671875 C 16.5 -7.535156 16.75 -8.507812 16.75 -9.59375 C 16.75 -10.675781 16.5 -11.648438 16 -12.515625 C 15.5 -13.378906 14.816406 -14.0625 13.953125 -14.5625 C 13.085938 -15.0625 12.113281 -15.3125 11.03125 -15.3125 C 9.96875 -15.3125 9.003906 -15.0625 8.140625 -14.5625 C 7.273438 -14.0625 6.59375 -13.378906 6.09375 -12.515625 C 5.59375 -11.648438 5.34375 -10.675781 5.34375 -9.59375 C 5.34375 -8.507812 5.59375 -7.535156 6.09375 -6.671875 C 6.59375 -5.804688 7.273438 -5.125 8.140625 -4.625 C 9.003906 -4.125 9.96875 -3.875 11.03125 -3.875 Z M 11.03125 -3.875 "/></g></g></g><g fill="#393536" fill-opacity="1"><g transform="translate(231.151026, 263.694488)"><g><path d="M 13.71875 -19.1875 L 13.71875 -15.4375 L 8.890625 -15.4375 L 8.890625 0 L 4.703125 0 L 4.703125 -15.4375 L -0.15625 -15.4375 L -0.15625 -19.1875 Z M 13.71875 -19.1875 "/></g></g></g><g fill="#393536" fill-opacity="1"><g transform="translate(245.220516, 263.694488)"><g><path d="M 13.625 0 L 12.4375 -3.609375 L 5.28125 -3.609375 L 4.09375 0 L -0.421875 0 L 6.484375 -19.1875 L 11.21875 -19.1875 L 18.125 0 Z M 6.390625 -7.125 L 11.3125 -7.125 L 8.859375 -14.734375 Z M 6.390625 -7.125 "/></g></g></g><g fill="#393536" fill-opacity="1"><g transform="translate(263.446894, 263.694488)"><g><path d="M 6.109375 -3.734375 L 12.46875 -3.734375 L 12.46875 0 L 1.890625 0 L 1.890625 -19.1875 L 6.109375 -19.1875 Z M 6.109375 -3.734375 "/></g></g></g><g fill="#ed1c24" fill-opacity="1"><g transform="translate(69.672162, 283.915505)"><g><path d="M 3.40625 0.125 C 2.726562 0.125 2.125 -0.0390625 1.59375 -0.375 C 1.0625 -0.71875 0.675781 -1.171875 0.4375 -1.734375 L 1.328125 -2.25 C 1.484375 -1.832031 1.738281 -1.492188 2.09375 -1.234375 C 2.457031 -0.984375 2.898438 -0.859375 3.421875 -0.859375 C 3.929688 -0.859375 4.363281 -0.988281 4.71875 -1.25 C 5.070312 -1.507812 5.25 -1.882812 5.25 -2.375 C 5.25 -2.75 5.140625 -3.054688 4.921875 -3.296875 C 4.710938 -3.535156 4.4375 -3.734375 4.09375 -3.890625 C 3.757812 -4.054688 3.40625 -4.210938 3.03125 -4.359375 C 2.65625 -4.503906 2.296875 -4.675781 1.953125 -4.875 C 1.617188 -5.082031 1.34375 -5.335938 1.125 -5.640625 C 0.914062 -5.953125 0.8125 -6.351562 0.8125 -6.84375 C 0.8125 -7.34375 0.921875 -7.769531 1.140625 -8.125 C 1.367188 -8.488281 1.675781 -8.765625 2.0625 -8.953125 C 2.445312 -9.148438 2.875 -9.25 3.34375 -9.25 C 3.875 -9.25 4.347656 -9.140625 4.765625 -8.921875 C 5.191406 -8.703125 5.53125 -8.429688 5.78125 -8.109375 L 5.015625 -7.46875 C 4.640625 -8.007812 4.09375 -8.28125 3.375 -8.28125 C 2.945312 -8.28125 2.570312 -8.164062 2.25 -7.9375 C 1.9375 -7.71875 1.78125 -7.378906 1.78125 -6.921875 C 1.78125 -6.554688 1.882812 -6.257812 2.09375 -6.03125 C 2.3125 -5.8125 2.585938 -5.625 2.921875 -5.46875 C 3.265625 -5.3125 3.625 -5.160156 4 -5.015625 C 4.375 -4.867188 4.726562 -4.691406 5.0625 -4.484375 C 5.40625 -4.273438 5.679688 -4.003906 5.890625 -3.671875 C 6.109375 -3.347656 6.21875 -2.925781 6.21875 -2.40625 C 6.21875 -1.875 6.09375 -1.414062 5.84375 -1.03125 C 5.59375 -0.65625 5.253906 -0.367188 4.828125 -0.171875 C 4.398438 0.0234375 3.925781 0.125 3.40625 0.125 Z M 3.40625 0.125 "/></g></g></g><g fill="#ed1c24" fill-opacity="1"><g transform="translate(79.993267, 283.915505)"><g><path d="M 6.171875 -8.1875 L 2.15625 -8.1875 L 2.15625 -5.03125 L 5.65625 -5.03125 L 5.65625 -4.09375 L 2.15625 -4.09375 L 2.15625 -0.9375 L 6.171875 -0.9375 L 6.171875 0 L 1.1875 0 L 1.1875 -9.125 L 6.171875 -9.125 Z M 6.171875 -8.1875 "/></g></g></g><g fill="#ed1c24" fill-opacity="1"><g transform="translate(90.740546, 283.915505)"><g><path d="M 4.8125 -4.171875 L 7.5 0 L 6.390625 0 L 3.796875 -4.125 L 2.078125 -4.125 L 2.078125 0 L 1.109375 0 L 1.109375 -9.125 L 4.375 -9.125 C 4.84375 -9.125 5.269531 -9.007812 5.65625 -8.78125 C 6.039062 -8.550781 6.347656 -8.242188 6.578125 -7.859375 C 6.804688 -7.472656 6.921875 -7.046875 6.921875 -6.578125 C 6.921875 -6.171875 6.828125 -5.789062 6.640625 -5.4375 C 6.453125 -5.09375 6.203125 -4.8125 5.890625 -4.59375 C 5.578125 -4.375 5.21875 -4.234375 4.8125 -4.171875 Z M 2.078125 -5.046875 L 4.328125 -5.046875 C 4.785156 -5.046875 5.171875 -5.1875 5.484375 -5.46875 C 5.796875 -5.757812 5.953125 -6.140625 5.953125 -6.609375 C 5.953125 -7.054688 5.789062 -7.425781 5.46875 -7.71875 C 5.15625 -8.007812 4.773438 -8.15625 4.328125 -8.15625 L 2.078125 -8.15625 Z M 2.078125 -5.046875 "/></g></g></g><g fill="#ed1c24" fill-opacity="1"><g transform="translate(102.03578, 283.915505)"><g><path d="M 6.625 -9.125 L 7.6875 -9.125 L 4.375 0 L 3.296875 0 L 0 -9.125 L 1.078125 -9.125 L 3.84375 -1.25 Z M 6.625 -9.125 "/></g></g></g><g fill="#ed1c24" fill-opacity="1"><g transform="translate(113.376672, 283.915505)"><g><path d="M 1.1875 0 L 1.1875 -9.125 L 2.15625 -9.125 L 2.15625 0 Z M 1.1875 0 "/></g></g></g><g fill="#ed1c24" fill-opacity="1"><g transform="translate(120.364421, 283.915505)"><g><path d="M 5.4375 0.125 C 4.78125 0.125 4.171875 0.00390625 3.609375 -0.234375 C 3.046875 -0.484375 2.546875 -0.820312 2.109375 -1.25 C 1.679688 -1.6875 1.347656 -2.1875 1.109375 -2.75 C 0.867188 -3.3125 0.75 -3.914062 0.75 -4.5625 C 0.75 -5.207031 0.867188 -5.8125 1.109375 -6.375 C 1.347656 -6.945312 1.679688 -7.445312 2.109375 -7.875 C 2.546875 -8.300781 3.046875 -8.632812 3.609375 -8.875 C 4.171875 -9.125 4.78125 -9.25 5.4375 -9.25 C 6.300781 -9.25 7.09375 -9.03125 7.8125 -8.59375 C 8.539062 -8.15625 9.109375 -7.582031 9.515625 -6.875 L 8.671875 -6.40625 C 8.359375 -6.96875 7.914062 -7.421875 7.34375 -7.765625 C 6.769531 -8.109375 6.132812 -8.28125 5.4375 -8.28125 C 4.75 -8.28125 4.125 -8.113281 3.5625 -7.78125 C 3 -7.445312 2.550781 -7 2.21875 -6.4375 C 1.882812 -5.875 1.71875 -5.25 1.71875 -4.5625 C 1.71875 -3.875 1.882812 -3.25 2.21875 -2.6875 C 2.550781 -2.125 3 -1.675781 3.5625 -1.34375 C 4.125 -1.019531 4.75 -0.859375 5.4375 -0.859375 C 6.132812 -0.859375 6.769531 -1.03125 7.34375 -1.375 C 7.914062 -1.71875 8.359375 -2.164062 8.671875 -2.71875 L 9.515625 -2.25 C 9.109375 -1.539062 8.539062 -0.96875 7.8125 -0.53125 C 7.09375 -0.09375 6.300781 0.125 5.4375 0.125 Z M 5.4375 0.125 "/></g></g></g><g fill="#ed1c24" fill-opacity="1"><g transform="translate(134.034089, 283.915505)"><g><path d="M 1.1875 0 L 1.1875 -9.125 L 2.15625 -9.125 L 2.15625 0 Z M 1.1875 0 "/></g></g></g><g fill="#ed1c24" fill-opacity="1"><g transform="translate(141.02184, 283.915505)"><g><path d="M 5.4375 0.125 C 4.78125 0.125 4.171875 0.00390625 3.609375 -0.234375 C 3.046875 -0.484375 2.546875 -0.820312 2.109375 -1.25 C 1.679688 -1.6875 1.347656 -2.1875 1.109375 -2.75 C 0.867188 -3.3125 0.75 -3.914062 0.75 -4.5625 C 0.75 -5.207031 0.867188 -5.8125 1.109375 -6.375 C 1.347656 -6.945312 1.679688 -7.445312 2.109375 -7.875 C 2.546875 -8.300781 3.046875 -8.632812 3.609375 -8.875 C 4.171875 -9.125 4.78125 -9.25 5.4375 -9.25 C 6.082031 -9.25 6.6875 -9.125 7.25 -8.875 C 7.820312 -8.632812 8.320312 -8.300781 8.75 -7.875 C 9.175781 -7.445312 9.507812 -6.945312 9.75 -6.375 C 10 -5.8125 10.125 -5.207031 10.125 -4.5625 C 10.125 -3.914062 10 -3.3125 9.75 -2.75 C 9.507812 -2.1875 9.175781 -1.6875 8.75 -1.25 C 8.320312 -0.820312 7.820312 -0.484375 7.25 -0.234375 C 6.6875 0.00390625 6.082031 0.125 5.4375 0.125 Z M 5.4375 -0.859375 C 6.125 -0.859375 6.75 -1.019531 7.3125 -1.34375 C 7.875 -1.675781 8.316406 -2.125 8.640625 -2.6875 C 8.972656 -3.25 9.140625 -3.875 9.140625 -4.5625 C 9.140625 -5.25 8.972656 -5.875 8.640625 -6.4375 C 8.316406 -7 7.875 -7.445312 7.3125 -7.78125 C 6.75 -8.113281 6.125 -8.28125 5.4375 -8.28125 C 4.75 -8.28125 4.125 -8.113281 3.5625 -7.78125 C 3 -7.445312 2.550781 -7 2.21875 -6.4375 C 1.882812 -5.875 1.71875 -5.25 1.71875 -4.5625 C 1.71875 -3.875 1.882812 -3.25 2.21875 -2.6875 C 2.550781 -2.125 3 -1.675781 3.5625 -1.34375 C 4.125 -1.019531 4.75 -0.859375 5.4375 -0.859375 Z M 5.4375 -0.859375 "/></g></g></g><g fill="#ed1c24" fill-opacity="1"><g transform="translate(155.559095, 283.915505)"><g/></g></g><g fill="#ed1c24" fill-opacity="1"><g transform="translate(162.881697, 283.915505)"><g><path d="M 1.109375 0 L 1.109375 -9.125 L 3.609375 -9.125 C 4.234375 -9.125 4.820312 -9.003906 5.375 -8.765625 C 5.925781 -8.523438 6.410156 -8.195312 6.828125 -7.78125 C 7.242188 -7.375 7.570312 -6.890625 7.8125 -6.328125 C 8.050781 -5.773438 8.171875 -5.1875 8.171875 -4.5625 C 8.171875 -3.9375 8.050781 -3.347656 7.8125 -2.796875 C 7.570312 -2.242188 7.242188 -1.757812 6.828125 -1.34375 C 6.410156 -0.925781 5.925781 -0.597656 5.375 -0.359375 C 4.820312 -0.117188 4.234375 0 3.609375 0 Z M 2.0625 -0.96875 L 3.59375 -0.96875 C 4.269531 -0.96875 4.878906 -1.125 5.421875 -1.4375 C 5.960938 -1.757812 6.394531 -2.191406 6.71875 -2.734375 C 7.039062 -3.273438 7.203125 -3.882812 7.203125 -4.5625 C 7.203125 -5.25 7.039062 -5.863281 6.71875 -6.40625 C 6.394531 -6.945312 5.960938 -7.375 5.421875 -7.6875 C 4.878906 -8 4.269531 -8.15625 3.59375 -8.15625 L 2.0625 -8.15625 Z M 2.0625 -0.96875 "/></g></g></g><g fill="#ed1c24" fill-opacity="1"><g transform="translate(175.455468, 283.915505)"><g><path d="M 6.171875 -8.1875 L 2.15625 -8.1875 L 2.15625 -5.03125 L 5.65625 -5.03125 L 5.65625 -4.09375 L 2.15625 -4.09375 L 2.15625 -0.9375 L 6.171875 -0.9375 L 6.171875 0 L 1.1875 0 L 1.1875 -9.125 L 6.171875 -9.125 Z M 6.171875 -8.1875 "/></g></g></g><g fill="#ed1c24" fill-opacity="1"><g transform="translate(186.202748, 283.915505)"><g/></g></g><g fill="#ed1c24" fill-opacity="1"><g transform="translate(193.52535, 283.915505)"><g><path d="M 4.8125 -4.171875 L 7.5 0 L 6.390625 0 L 3.796875 -4.125 L 2.078125 -4.125 L 2.078125 0 L 1.109375 0 L 1.109375 -9.125 L 4.375 -9.125 C 4.84375 -9.125 5.269531 -9.007812 5.65625 -8.78125 C 6.039062 -8.550781 6.347656 -8.242188 6.578125 -7.859375 C 6.804688 -7.472656 6.921875 -7.046875 6.921875 -6.578125 C 6.921875 -6.171875 6.828125 -5.789062 6.640625 -5.4375 C 6.453125 -5.09375 6.203125 -4.8125 5.890625 -4.59375 C 5.578125 -4.375 5.21875 -4.234375 4.8125 -4.171875 Z M 2.078125 -5.046875 L 4.328125 -5.046875 C 4.785156 -5.046875 5.171875 -5.1875 5.484375 -5.46875 C 5.796875 -5.757812 5.953125 -6.140625 5.953125 -6.609375 C 5.953125 -7.054688 5.789062 -7.425781 5.46875 -7.71875 C 5.15625 -8.007812 4.773438 -8.15625 4.328125 -8.15625 L 2.078125 -8.15625 Z M 2.078125 -5.046875 "/></g></g></g><g fill="#ed1c24" fill-opacity="1"><g transform="translate(204.82058, 283.915505)"><g><path d="M 6.171875 -8.1875 L 2.15625 -8.1875 L 2.15625 -5.03125 L 5.65625 -5.03125 L 5.65625 -4.09375 L 2.15625 -4.09375 L 2.15625 -0.9375 L 6.171875 -0.9375 L 6.171875 0 L 1.1875 0 L 1.1875 -9.125 L 6.171875 -9.125 Z M 6.171875 -8.1875 "/></g></g></g><g fill="#ed1c24" fill-opacity="1"><g transform="translate(215.567854, 283.915505)"><g><path d="M 4.375 -9.125 C 4.851562 -9.125 5.28125 -9.007812 5.65625 -8.78125 C 6.039062 -8.550781 6.347656 -8.242188 6.578125 -7.859375 C 6.804688 -7.472656 6.921875 -7.050781 6.921875 -6.59375 C 6.921875 -6.125 6.804688 -5.695312 6.578125 -5.3125 C 6.347656 -4.925781 6.039062 -4.617188 5.65625 -4.390625 C 5.28125 -4.171875 4.851562 -4.0625 4.375 -4.0625 L 2.078125 -4.0625 L 2.078125 0 L 1.109375 0 L 1.109375 -9.125 Z M 4.296875 -4.984375 C 4.742188 -4.984375 5.128906 -5.125 5.453125 -5.40625 C 5.785156 -5.6875 5.953125 -6.078125 5.953125 -6.578125 C 5.953125 -7.054688 5.785156 -7.441406 5.453125 -7.734375 C 5.128906 -8.035156 4.742188 -8.1875 4.296875 -8.1875 L 2.078125 -8.1875 L 2.078125 -4.984375 Z M 4.296875 -4.984375 "/></g></g></g><g fill="#ed1c24" fill-opacity="1"><g transform="translate(226.406451, 283.915505)"><g><path d="M 6.625 0 L 5.875 -2.125 L 1.8125 -2.125 L 1.0625 0 L 0 0 L 3.296875 -9.125 L 4.375 -9.125 L 7.6875 0 Z M 2.125 -3.0625 L 5.546875 -3.0625 L 3.84375 -7.96875 Z M 2.125 -3.0625 "/></g></g></g><g fill="#ed1c24" fill-opacity="1"><g transform="translate(237.747336, 283.915505)"><g><path d="M 4.8125 -4.171875 L 7.5 0 L 6.390625 0 L 3.796875 -4.125 L 2.078125 -4.125 L 2.078125 0 L 1.109375 0 L 1.109375 -9.125 L 4.375 -9.125 C 4.84375 -9.125 5.269531 -9.007812 5.65625 -8.78125 C 6.039062 -8.550781 6.347656 -8.242188 6.578125 -7.859375 C 6.804688 -7.472656 6.921875 -7.046875 6.921875 -6.578125 C 6.921875 -6.171875 6.828125 -5.789062 6.640625 -5.4375 C 6.453125 -5.09375 6.203125 -4.8125 5.890625 -4.59375 C 5.578125 -4.375 5.21875 -4.234375 4.8125 -4.171875 Z M 2.078125 -5.046875 L 4.328125 -5.046875 C 4.785156 -5.046875 5.171875 -5.1875 5.484375 -5.46875 C 5.796875 -5.757812 5.953125 -6.140625 5.953125 -6.609375 C 5.953125 -7.054688 5.789062 -7.425781 5.46875 -7.71875 C 5.15625 -8.007812 4.773438 -8.15625 4.328125 -8.15625 L 2.078125 -8.15625 Z M 2.078125 -5.046875 "/></g></g></g><g fill="#ed1c24" fill-opacity="1"><g transform="translate(249.042567, 283.915505)"><g><path d="M 6.625 0 L 5.875 -2.125 L 1.8125 -2.125 L 1.0625 0 L 0 0 L 3.296875 -9.125 L 4.375 -9.125 L 7.6875 0 Z M 2.125 -3.0625 L 5.546875 -3.0625 L 3.84375 -7.96875 Z M 2.125 -3.0625 "/></g></g></g><g fill="#ed1c24" fill-opacity="1"><g transform="translate(260.383452, 283.915505)"><g><path d="M 5.4375 0.125 C 4.78125 0.125 4.171875 0.00390625 3.609375 -0.234375 C 3.046875 -0.484375 2.546875 -0.820312 2.109375 -1.25 C 1.679688 -1.6875 1.347656 -2.1875 1.109375 -2.75 C 0.867188 -3.3125 0.75 -3.914062 0.75 -4.5625 C 0.75 -5.207031 0.867188 -5.8125 1.109375 -6.375 C 1.347656 -6.945312 1.679688 -7.445312 2.109375 -7.875 C 2.546875 -8.300781 3.046875 -8.632812 3.609375 -8.875 C 4.171875 -9.125 4.78125 -9.25 5.4375 -9.25 C 6.300781 -9.25 7.09375 -9.03125 7.8125 -8.59375 C 8.539062 -8.15625 9.109375 -7.582031 9.515625 -6.875 L 8.671875 -6.40625 C 8.359375 -6.96875 7.914062 -7.421875 7.34375 -7.765625 C 6.769531 -8.109375 6.132812 -8.28125 5.4375 -8.28125 C 4.75 -8.28125 4.125 -8.113281 3.5625 -7.78125 C 3 -7.445312 2.550781 -7 2.21875 -6.4375 C 1.882812 -5.875 1.71875 -5.25 1.71875 -4.5625 C 1.71875 -3.875 1.882812 -3.25 2.21875 -2.6875 C 2.550781 -2.125 3 -1.675781 3.5625 -1.34375 C 4.125 -1.019531 4.75 -0.859375 5.4375 -0.859375 C 6.132812 -0.859375 6.769531 -1.03125 7.34375 -1.375 C 7.914062 -1.71875 8.359375 -2.164062 8.671875 -2.71875 L 9.515625 -2.25 C 9.109375 -1.539062 8.539062 -0.96875 7.8125 -0.53125 C 7.09375 -0.09375 6.300781 0.125 5.4375 0.125 Z M 5.4375 0.125 "/></g></g></g><g fill="#ed1c24" fill-opacity="1"><g transform="translate(274.053116, 283.915505)"><g><path d="M 1.1875 0 L 1.1875 -9.125 L 2.15625 -9.125 L 2.15625 0 Z M 1.1875 0 "/></g></g></g><g fill="#ed1c24" fill-opacity="1"><g transform="translate(281.040861, 283.915505)"><g><path d="M 5.4375 0.125 C 4.78125 0.125 4.171875 0.00390625 3.609375 -0.234375 C 3.046875 -0.484375 2.546875 -0.820312 2.109375 -1.25 C 1.679688 -1.6875 1.347656 -2.1875 1.109375 -2.75 C 0.867188 -3.3125 0.75 -3.914062 0.75 -4.5625 C 0.75 -5.207031 0.867188 -5.8125 1.109375 -6.375 C 1.347656 -6.945312 1.679688 -7.445312 2.109375 -7.875 C 2.546875 -8.300781 3.046875 -8.632812 3.609375 -8.875 C 4.171875 -9.125 4.78125 -9.25 5.4375 -9.25 C 6.082031 -9.25 6.6875 -9.125 7.25 -8.875 C 7.820312 -8.632812 8.320312 -8.300781 8.75 -7.875 C 9.175781 -7.445312 9.507812 -6.945312 9.75 -6.375 C 10 -5.8125 10.125 -5.207031 10.125 -4.5625 C 10.125 -3.914062 10 -3.3125 9.75 -2.75 C 9.507812 -2.1875 9.175781 -1.6875 8.75 -1.25 C 8.320312 -0.820312 7.820312 -0.484375 7.25 -0.234375 C 6.6875 0.00390625 6.082031 0.125 5.4375 0.125 Z M 5.4375 -0.859375 C 6.125 -0.859375 6.75 -1.019531 7.3125 -1.34375 C 7.875 -1.675781 8.316406 -2.125 8.640625 -2.6875 C 8.972656 -3.25 9.140625 -3.875 9.140625 -4.5625 C 9.140625 -5.25 8.972656 -5.875 8.640625 -6.4375 C 8.316406 -7 7.875 -7.445312 7.3125 -7.78125 C 6.75 -8.113281 6.125 -8.28125 5.4375 -8.28125 C 4.75 -8.28125 4.125 -8.113281 3.5625 -7.78125 C 3 -7.445312 2.550781 -7 2.21875 -6.4375 C 1.882812 -5.875 1.71875 -5.25 1.71875 -4.5625 C 1.71875 -3.875 1.882812 -3.25 2.21875 -2.6875 C 2.550781 -2.125 3 -1.675781 3.5625 -1.34375 C 4.125 -1.019531 4.75 -0.859375 5.4375 -0.859375 Z M 5.4375 -0.859375 "/></g></g></g><g fill="#ed1c24" fill-opacity="1"><g transform="translate(295.578109, 283.915505)"><g><path d="M 7.671875 -9.125 L 8.625 -9.125 L 8.625 0 L 7.71875 0 L 2.078125 -7.5 L 2.078125 0 L 1.109375 0 L 1.109375 -9.125 L 2.03125 -9.125 L 7.671875 -1.625 Z M 7.671875 -9.125 "/></g></g></g></svg>